g Salad_Lettuce
v -0.1019694 0.009082756 0.125558
v -0.03946298 -0.03607806 0.09049295
v -0.0661929 0.009150296 0.1864928
v -0.1203684 0.03503958 0.1679865
v 0.02950723 -0.007047066 0.2026171
v 0.03011972 -0.047855 0.1022168
v 0.09497968 -0.001369743 0.2043468
v 0.08869883 -0.02318802 0.1576833
v -0.07440235 0.05820508 0.2801123
v -0.138788 0.08582249 0.2598857
v 0.02129776 0.04200773 0.2962366
v 0.09698106 0.04595693 0.2996865
v -0.06608108 0.1220008 0.3687703
v -0.1246074 0.1006862 0.2966837
v 0.003501625 0.1102239 0.3804941
v 0.08414099 0.06535544 0.3318551
v 0.09325267 0.01502427 0.1070082
v 0.05542405 -0.01607756 0.03788665
v 0.1537968 0.0188157 0.07077154
v 0.1370861 0.03508539 0.1291132
v 0.1682454 0.01985427 -0.02654778
v 0.06592963 -0.01532244 -0.03287324
v 0.1696783 0.03745657 -0.08987237
v 0.12204 0.01709344 -0.08688573
v 0.249819 0.06100412 0.08620396
v 0.2315676 0.07716301 0.1549287
v 0.2642679 0.06204267 -0.01111535
v 0.2672423 0.07975577 -0.08482306
v 0.3414773 0.1209557 0.08819768
v 0.2689356 0.09262929 0.1430741
v 0.3519829 0.1217108 0.01743779
v 0.3004524 0.09489468 -0.06920554
v 0.09921476 0.007913961 -0.13471
v 0.04892189 -0.03216709 -0.07957147
v 0.04485971 0.01183178 -0.1796898
v 0.104087 0.03274025 -0.1813186
v -0.0515764 0.004108991 -0.1617643
v -0.02119587 -0.03778227 -0.06653801
v -0.1129399 0.01540152 -0.1410548
v -0.09291946 -0.007472539 -0.09899615
v 0.02461159 0.06120031 -0.2712929
v 0.09412786 0.08293275 -0.2748343
v -0.07182453 0.05347751 -0.2533674
v -0.143477 0.06394608 -0.2307454
v -0.008148842 0.1266081 -0.3528279
v 0.06950847 0.09942916 -0.3047987
v -0.0782666 0.1209929 -0.3397945
v -0.1408448 0.08258364 -0.2656983
v 0.06467292 0.05749033 -0.1789065
v 0.14215 0.05327174 -0.212901
v 0.0925584 0.07781433 -0.1161341
v 0.03446629 0.05513862 -0.1353809
v 0.1857651 0.0850336 -0.08545399
v 0.2099196 0.05852081 -0.1905939
v 0.2441827 0.07138207 -0.06626005
v 0.2503734 0.07187366 -0.117781
v 0.05892346 0.07518397 -0.01563464
v -0.009112815 0.05173803 -0.03815469
v 0.1521305 0.08240324 0.0150455
v 0.2204926 0.06952195 0.03751276
v 0.03561985 0.05517715 0.09005678
v -0.004588013 0.05207936 0.003744303
v 0.1033898 0.06042622 0.112364
v 0.198721 0.06782656 0.07066594
v -0.1110477 -0.00731339 -0.0601468
v -0.0681669 -0.02483016 0.01077926
v -0.1630105 0.02941868 -0.0218691
v -0.1572026 0.00583796 -0.0827124
v -0.1737781 0.04378493 0.07487055
v -0.07599552 -0.0143846 0.08111766
v -0.181514 0.03819225 0.1349679
v -0.1325008 0.02130919 0.1325923
v -0.2627164 0.06139209 -0.03844541
v -0.25576 0.03627865 -0.1096099
v -0.2734843 0.07575835 0.05829423
v -0.2823687 0.07169841 0.1287129
v -0.3662986 0.08096931 -0.04453339
v -0.2938023 0.05043412 -0.09827346
v -0.3741278 0.09141491 0.02580505
v -0.3172894 0.08177078 0.1127418
v -0.1181393 0.003178396 -0.1340508
v -0.01083382 -0.04034223 -0.1433004
v -0.09435308 0.04147391 -0.04990621
v -0.1703582 0.02991317 -0.0910745
v 0.01886813 0.03940675 0.02344727
v 0.07148783 -0.04184524 -0.08996583
v 0.08436429 0.02530601 0.07408427
v 0.1074366 -0.0009401178 0.01209479
v -0.1676078 0.09660854 0.06290579
v -0.2556932 0.08526836 0.01391142
v -0.05438688 0.09454135 0.1362593
v 0.02318899 0.08022008 0.1947225
v -0.2343092 0.1395991 0.1907908
v -0.261931 0.1048669 0.06791888
v -0.1519872 0.1380961 0.2441253
v -0.01496509 0.1003579 0.2279225
v 0.004848785 0.04405057 0.2274779
v -0.01217096 0.002056041 0.1559032
v 0.06570598 0.0625037 0.2047691
v 0.04137031 0.06217134 0.2613932
v 0.1137832 0.03551311 0.1232768
v 0.02278577 -0.01756855 0.09665105
v 0.1496325 0.001458006 0.07804724
v 0.1006354 -0.009724073 0.06511691
v 0.1570772 0.09180321 0.2498374
v 0.1276126 0.09435047 0.315156
v 0.2051544 0.06481259 0.1683451
v 0.2461333 0.02787783 0.1144211
v 0.2612745 0.1012925 0.2919753
v 0.1693238 0.1001244 0.316872
v 0.2962306 0.08166789 0.2327231
v 0.2741931 0.04125072 0.1391155
v 0.1055106 -0.01101319 -0.09701492
v 0.0438637 -0.0151564 -0.1549684
v 0.1508074 0.007040882 -0.1481546
v 0.1561133 0.00032372 -0.08590986
v 0.1324912 0.04417311 -0.2374106
v 0.0305463 0.01184207 -0.2198655
v 0.1149768 0.08391113 -0.2867667
v 0.06901848 0.06296712 -0.2748437
v 0.2506208 0.0424083 -0.1531324
v 0.2578809 0.0317295 -0.08136477
v 0.2323046 0.07954054 -0.2423883
v 0.2128362 0.1232402 -0.3012673
v 0.3438953 0.09915502 -0.1620268
v 0.2907492 0.05119494 -0.09916638
v 0.3305779 0.1261535 -0.2269238
v 0.2507963 0.1321903 -0.2938575
v -0.01307586 0.05193979 0.02572695
v -0.07931001 0.05074614 0.07852622
v -0.05745838 0.07498366 -0.02834613
v 0.004637833 0.05063071 -0.02424265
v -0.1544202 0.09098366 -0.03317722
v -0.1498096 0.06237957 0.07501357
v -0.2135501 0.08663744 -0.0351996
v -0.2062572 0.08381736 0.01610177
v -0.05107706 0.07729822 -0.1341397
v 0.02136418 0.05123822 -0.1295208
v -0.1480386 0.0932982 -0.1389708
v -0.2175134 0.09065907 -0.1415086
v -0.05427006 0.06714439 -0.2412234
v 0.006295748 0.05494447 -0.1687039
v -0.1247697 0.07877783 -0.2447361
v -0.2052037 0.08984478 -0.1792419
vt 0.1151915 0.6335055
vt 0.06198902 0.5768165
vt 0.1618316 0.5911512
vt 0.1624355 0.646608
vt 0.1599705 0.5002097
vt 0.06063583 0.5106939
vt 0.1583267 0.4419608
vt 0.1114835 0.4523185
vt 0.2598272 0.5898096
vt 0.2606296 0.6549689
vt 0.2579661 0.4988682
vt 0.2561235 0.4309166
vt 0.3587319 0.5765778
vt 0.2957887 0.6381822
vt 0.3573787 0.5104553
vt 0.2917291 0.4398143
vt 0.1151915 0.6335055
vt 0.06198902 0.5768165
vt 0.1618316 0.5911512
vt 0.1624355 0.646608
vt 0.1599705 0.5002097
vt 0.06063583 0.5106939
vt 0.1583267 0.4419608
vt 0.1114835 0.4523185
vt 0.2598272 0.5898096
vt 0.2606296 0.6549689
vt 0.2579661 0.4988682
vt 0.2561235 0.4309166
vt 0.3587319 0.5765778
vt 0.2957887 0.6381822
vt 0.3573787 0.5104553
vt 0.2917291 0.4398143
vt 0.1151915 0.6335055
vt 0.06198902 0.5768165
vt 0.1618316 0.5911512
vt 0.1624355 0.646608
vt 0.1599705 0.5002097
vt 0.06063583 0.5106939
vt 0.1583267 0.4419608
vt 0.1114835 0.4523185
vt 0.2598272 0.5898096
vt 0.2606296 0.6549689
vt 0.2579661 0.4988682
vt 0.2561235 0.4309166
vt 0.3587319 0.5765778
vt 0.2957887 0.6381822
vt 0.3573787 0.5104553
vt 0.2917291 0.4398143
vt 0.1151915 0.6335055
vt 0.06198902 0.5768165
vt 0.1618316 0.5911512
vt 0.1624355 0.646608
vt 0.1599705 0.5002097
vt 0.06063583 0.5106939
vt 0.1583267 0.4419608
vt 0.1114835 0.4523185
vt 0.2598272 0.5898096
vt 0.2606296 0.6549689
vt 0.2579661 0.4988682
vt 0.2561235 0.4309166
vt 0.3587319 0.5765778
vt 0.2957887 0.6381822
vt 0.3573787 0.5104553
vt 0.2917291 0.4398143
vt 0.1151915 0.6335055
vt 0.06198902 0.5768165
vt 0.1618316 0.5911512
vt 0.1624355 0.646608
vt 0.1599705 0.5002097
vt 0.06063583 0.5106939
vt 0.1583267 0.4419608
vt 0.1114835 0.4523185
vt 0.2598272 0.5898096
vt 0.2606296 0.6549689
vt 0.2579661 0.4988682
vt 0.2561235 0.4309166
vt 0.3587319 0.5765778
vt 0.2957887 0.6381822
vt 0.3573787 0.5104553
vt 0.2917291 0.4398143
vt 0.1151915 0.6335055
vt 0.06198902 0.5768165
vt 0.1618316 0.5911512
vt 0.1624355 0.646608
vt 0.1599705 0.5002097
vt 0.06063583 0.5106939
vt 0.1583267 0.4419608
vt 0.1114835 0.4523185
vt 0.2598272 0.5898096
vt 0.2606296 0.6549689
vt 0.2579661 0.4988682
vt 0.2561235 0.4309166
vt 0.3587319 0.5765778
vt 0.2957887 0.6381822
vt 0.3573787 0.5104553
vt 0.2917291 0.4398143
vt 0.1151915 0.6335055
vt 0.06198902 0.5768165
vt 0.1618316 0.5911512
vt 0.1624355 0.646608
vt 0.1599705 0.5002097
vt 0.06063583 0.5106939
vt 0.1583267 0.4419608
vt 0.1114835 0.4523185
vt 0.2598272 0.5898096
vt 0.2606296 0.6549689
vt 0.2579661 0.4988682
vt 0.2561235 0.4309166
vt 0.3587319 0.5765778
vt 0.2957887 0.6381822
vt 0.3573787 0.5104553
vt 0.2917291 0.4398143
vt 0.1151915 0.6335055
vt 0.06198902 0.5768165
vt 0.1618316 0.5911512
vt 0.1624355 0.646608
vt 0.1599705 0.5002097
vt 0.06063583 0.5106939
vt 0.1583267 0.4419608
vt 0.1114835 0.4523185
vt 0.2598272 0.5898096
vt 0.2606296 0.6549689
vt 0.2579661 0.4988682
vt 0.2561235 0.4309166
vt 0.3587319 0.5765778
vt 0.2957887 0.6381822
vt 0.3573787 0.5104553
vt 0.2917291 0.4398143
vt 0.1151915 0.6335055
vt 0.06198902 0.5768165
vt 0.1618316 0.5911512
vt 0.1624355 0.646608
vt 0.1599705 0.5002097
vt 0.06063583 0.5106939
vt 0.1583267 0.4419608
vt 0.1114835 0.4523185
vt 0.2598272 0.5898096
vt 0.2606296 0.6549689
vt 0.2579661 0.4988682
vt 0.2561235 0.4309166
vt 0.3587319 0.5765778
vt 0.2957887 0.6381822
vt 0.3573787 0.5104553
vt 0.2917291 0.4398143
vn 0.4706826 0.8376001 -0.2772793
vn 0.2595266 0.8987208 -0.3534783
vn 0.3231353 0.8671639 -0.3789594
vn 0.4767467 0.8131872 -0.3338249
vn 0.1148333 0.9009396 -0.4184749
vn 0.1641458 0.91308 -0.3732842
vn -0.04441892 0.9006218 -0.4323277
vn -0.04519656 0.9197379 -0.3899225
vn 0.3208527 0.8161825 -0.4805202
vn 0.4670687 0.7779198 -0.4203422
vn 0.1313625 0.8484838 -0.512659
vn -0.01270417 0.8600735 -0.510012
vn 0.2648663 0.773124 -0.576303
vn 0.4372597 0.7245736 -0.5327261
vn 0.1935853 0.7864414 -0.5865446
vn 0.03844714 0.8032706 -0.594372
vn -0.2392231 0.9224173 -0.3031807
vn -0.3104049 0.9469702 -0.0830437
vn -0.337993 0.9289704 -0.1509132
vn -0.2969699 0.9022601 -0.3126269
vn -0.3739299 0.9254673 0.06071958
vn -0.3286254 0.9443612 0.01368884
vn -0.386374 0.8963535 0.217406
vn -0.3430608 0.9129608 0.2209341
vn -0.4419506 0.8833268 -0.1562478
vn -0.3850538 0.8699591 -0.3080663
vn -0.4707601 0.8815061 0.03649408
vn -0.4662645 0.8661067 0.1801571
vn -0.5392668 0.8352519 -0.1074507
vn -0.4996954 0.8174167 -0.2865911
vn -0.5481999 0.8356244 -0.03476524
vn -0.5538058 0.8238173 0.1209311
vn -0.2741354 0.8712458 0.4071617
vn -0.04527237 0.9130508 0.4053251
vn -0.09872682 0.88674 0.4516029
vn -0.2624973 0.8467184 0.4627777
vn 0.1125663 0.9020186 0.4167627
vn 0.05197065 0.9189225 0.3909992
vn 0.266277 0.887868 0.3752157
vn 0.2540907 0.9073901 0.3347853
vn -0.06610405 0.8344502 0.5471042
vn -0.2267779 0.8096425 0.5413417
vn 0.1249353 0.8499681 0.511806
vn 0.2597942 0.8491944 0.4597563
vn 0.01545339 0.7855229 0.6186398
vn -0.1648923 0.7524977 0.6376188
vn 0.08678231 0.7925461 0.6036054
vn 0.2360352 0.7959083 0.5575101
vn -0.1565874 0.9579139 -0.2405856
vn -0.02230393 0.9696701 -0.2433977
vn -0.1246707 0.9839389 -0.1277559
vn -0.2645701 0.953828 -0.1421792
vn 0.03822642 0.9965528 -0.07362866
vn 0.02724077 0.973916 -0.2252679
vn 0.1647978 0.9863272 -0.0006212733
vn 0.1310859 0.9817643 -0.1376789
vn -0.1867747 0.9817719 0.03519954
vn -0.3165347 0.9479858 -0.03359396
vn -0.008315719 0.9953938 0.09551002
vn 0.1337035 0.9830267 0.125626
vn -0.1612575 0.9761809 0.1451444
vn -0.3174916 0.9444041 0.08543951
vn -0.09427273 0.9814512 0.1669317
vn 0.05713543 0.9764495 0.2080425
vn 0.4794445 0.8600543 -0.1744695
vn 0.5078846 0.8569113 -0.08806978
vn 0.4072493 0.9004328 -0.1528681
vn 0.3931863 0.8835686 -0.2543838
vn 0.3932735 0.9190418 -0.02642447
vn 0.5037972 0.8621082 -0.05438819
vn 0.3576689 0.9307477 0.07603702
vn 0.4546678 0.8903999 0.02156777
vn 0.2753401 0.9436637 -0.183539
vn 0.3046117 0.9067184 -0.2916735
vn 0.2574309 0.9655326 -0.03841962
vn 0.2536819 0.9639123 0.08073811
vn 0.1954121 0.9689274 -0.1516371
vn 0.2124224 0.9356787 -0.2817487
vn 0.1888399 0.9772488 -0.0965624
vn 0.1752081 0.9840014 0.0323019
vn 0.2293393 0.8598398 -0.4561569
vn 0.2965043 0.839644 -0.455064
vn 0.2163922 0.8928439 -0.3949736
vn 0.1352665 0.8987322 -0.4171131
vn 0.29539 0.8913172 -0.3439454
vn 0.3157192 0.83982 -0.441615
vn 0.3501356 0.8942486 -0.2787912
vn 0.3430228 0.859572 -0.378776
vn 0.151648 0.9389001 -0.3089814
vn 0.08290892 0.9274281 -0.3646958
vn 0.2441998 0.9374767 -0.2479997
vn 0.3181589 0.9255197 -0.205398
vn 0.1517784 0.9574718 -0.2453791
vn 0.067337 0.9514375 -0.3003869
vn 0.1860927 0.956816 -0.2233215
vn 0.2643695 0.9486148 -0.173893
vn -0.3788828 0.8735616 -0.3055128
vn -0.3451687 0.8260272 -0.4455756
vn -0.2518717 0.9066372 -0.3384814
vn -0.2975073 0.9362926 -0.1866692
vn -0.1630117 0.8589621 -0.485398
vn -0.3128161 0.8132913 -0.4906153
vn -0.06207998 0.8130826 -0.5788288
vn -0.2031009 0.7946105 -0.5721399
vn -0.099982 0.9610412 -0.2576884
vn -0.1922269 0.9734454 -0.1243096
vn -0.006098105 0.9083942 -0.4180704
vn 0.0498774 0.8472467 -0.5288529
vn 0.01661743 0.9633232 -0.2678289
vn -0.07059681 0.9914024 -0.1101689
vn 0.04886704 0.9433666 -0.3281334
vn 0.1117702 0.8859304 -0.4501499
vn -0.2216704 0.9644117 0.1441267
vn -0.213363 0.9046766 0.3688314
vn -0.2635395 0.9124451 0.3130349
vn -0.2811729 0.9480488 0.1488129
vn -0.2280825 0.8304526 0.5082584
vn -0.1989513 0.8662285 0.4583302
vn -0.19149 0.745375 0.6385512
vn -0.1478643 0.7603424 0.6324679
vn -0.3678598 0.8699901 0.3283237
vn -0.3658726 0.9146504 0.1719069
vn -0.3317393 0.7966651 0.5052462
vn -0.2820179 0.7294616 0.6231787
vn -0.4484306 0.8054417 0.3875225
vn -0.4721678 0.8556919 0.2117759
vn -0.4328806 0.7788113 0.4539465
vn -0.3882805 0.7103134 0.5871056
vn 0.2473116 0.9478683 0.2009545
vn 0.1640748 0.9570475 0.239039
vn 0.2170649 0.9684173 0.1226816
vn 0.3154253 0.9435472 0.1011215
vn 0.09085618 0.9889767 0.1169203
vn 0.129371 0.9626298 0.2379226
vn -0.01919992 0.995979 0.08750518
vn 0.04492635 0.9807777 0.1898862
vn 0.2333879 0.9722271 -0.01744826
vn 0.3389312 0.940776 0.008142596
vn 0.0896299 0.995611 -0.02693087
vn -0.0295817 0.9993398 -0.02109025
vn 0.1950382 0.9761703 -0.09514074
vn 0.3188592 0.9442971 -0.08143518
vn 0.1411597 0.9850209 -0.09903436
vn 0.01259047 0.9945849 -0.1031628
g Salad_Lettuce_0
f 3/3/3 2/2/2 1/1/1
f 4/4/4 3/3/3 1/1/1
f 3/3/3 5/5/5 2/2/2
f 5/5/5 6/6/6 2/2/2
f 5/5/5 7/7/7 6/6/6
f 7/7/7 8/8/8 6/6/6
f 9/9/9 3/3/3 4/4/4
f 10/10/10 9/9/9 4/4/4
f 11/11/11 5/5/5 3/3/3
f 9/9/9 11/11/11 3/3/3
f 12/12/12 7/7/7 5/5/5
f 11/11/11 12/12/12 5/5/5
f 13/13/13 9/9/9 10/10/10
f 14/14/14 13/13/13 10/10/10
f 15/15/15 11/11/11 9/9/9
f 13/13/13 15/15/15 9/9/9
f 16/16/16 12/12/12 11/11/11
f 15/15/15 16/16/16 11/11/11
f 19/19/19 18/18/18 17/17/17
f 20/20/20 19/19/19 17/17/17
f 19/19/19 21/21/21 18/18/18
f 21/21/21 22/22/22 18/18/18
f 21/21/21 23/23/23 22/22/22
f 23/23/23 24/24/24 22/22/22
f 25/25/25 19/19/19 20/20/20
f 26/26/26 25/25/25 20/20/20
f 27/27/27 21/21/21 19/19/19
f 25/25/25 27/27/27 19/19/19
f 28/28/28 23/23/23 21/21/21
f 27/27/27 28/28/28 21/21/21
f 29/29/29 25/25/25 26/26/26
f 30/30/30 29/29/29 26/26/26
f 31/31/31 27/27/27 25/25/25
f 29/29/29 31/31/31 25/25/25
f 32/32/32 28/28/28 27/27/27
f 31/31/31 32/32/32 27/27/27
f 35/35/35 34/34/34 33/33/33
f 36/36/36 35/35/35 33/33/33
f 35/35/35 37/37/37 34/34/34
f 37/37/37 38/38/38 34/34/34
f 37/37/37 39/39/39 38/38/38
f 39/39/39 40/40/40 38/38/38
f 41/41/41 35/35/35 36/36/36
f 42/42/42 41/41/41 36/36/36
f 43/43/43 37/37/37 35/35/35
f 41/41/41 43/43/43 35/35/35
f 44/44/44 39/39/39 37/37/37
f 43/43/43 44/44/44 37/37/37
f 45/45/45 41/41/41 42/42/42
f 46/46/46 45/45/45 42/42/42
f 47/47/47 43/43/43 41/41/41
f 45/45/45 47/47/47 41/41/41
f 48/48/48 44/44/44 43/43/43
f 47/47/47 48/48/48 43/43/43
f 51/51/51 50/50/50 49/49/49
f 52/52/52 51/51/51 49/49/49
f 51/51/51 53/53/53 50/50/50
f 53/53/53 54/54/54 50/50/50
f 53/53/53 55/55/55 54/54/54
f 55/55/55 56/56/56 54/54/54
f 57/57/57 51/51/51 52/52/52
f 58/58/58 57/57/57 52/52/52
f 59/59/59 53/53/53 51/51/51
f 57/57/57 59/59/59 51/51/51
f 60/60/60 55/55/55 53/53/53
f 59/59/59 60/60/60 53/53/53
f 61/61/61 57/57/57 58/58/58
f 62/62/62 61/61/61 58/58/58
f 63/63/63 59/59/59 57/57/57
f 61/61/61 63/63/63 57/57/57
f 64/64/64 60/60/60 59/59/59
f 63/63/63 64/64/64 59/59/59
f 67/67/67 66/66/66 65/65/65
f 68/68/68 67/67/67 65/65/65
f 67/67/67 69/69/69 66/66/66
f 69/69/69 70/70/70 66/66/66
f 69/69/69 71/71/71 70/70/70
f 71/71/71 72/72/72 70/70/70
f 73/73/73 67/67/67 68/68/68
f 74/74/74 73/73/73 68/68/68
f 75/75/75 69/69/69 67/67/67
f 73/73/73 75/75/75 67/67/67
f 76/76/76 71/71/71 69/69/69
f 75/75/75 76/76/76 69/69/69
f 77/77/77 73/73/73 74/74/74
f 78/78/78 77/77/77 74/74/74
f 79/79/79 75/75/75 73/73/73
f 77/77/77 79/79/79 73/73/73
f 80/80/80 76/76/76 75/75/75
f 79/79/79 80/80/80 75/75/75
f 83/83/83 82/82/82 81/81/81
f 84/84/84 83/83/83 81/81/81
f 83/83/83 85/85/85 82/82/82
f 85/85/85 86/86/86 82/82/82
f 85/85/85 87/87/87 86/86/86
f 87/87/87 88/88/88 86/86/86
f 89/89/89 83/83/83 84/84/84
f 90/90/90 89/89/89 84/84/84
f 91/91/91 85/85/85 83/83/83
f 89/89/89 91/91/91 83/83/83
f 92/92/92 87/87/87 85/85/85
f 91/91/91 92/92/92 85/85/85
f 93/93/93 89/89/89 90/90/90
f 94/94/94 93/93/93 90/90/90
f 95/95/95 91/91/91 89/89/89
f 93/93/93 95/95/95 89/89/89
f 96/96/96 92/92/92 91/91/91
f 95/95/95 96/96/96 91/91/91
f 99/99/99 98/98/98 97/97/97
f 100/100/100 99/99/99 97/97/97
f 99/99/99 101/101/101 98/98/98
f 101/101/101 102/102/102 98/98/98
f 101/101/101 103/103/103 102/102/102
f 103/103/103 104/104/104 102/102/102
f 105/105/105 99/99/99 100/100/100
f 106/106/106 105/105/105 100/100/100
f 107/107/107 101/101/101 99/99/99
f 105/105/105 107/107/107 99/99/99
f 108/108/108 103/103/103 101/101/101
f 107/107/107 108/108/108 101/101/101
f 109/109/109 105/105/105 106/106/106
f 110/110/110 109/109/109 106/106/106
f 111/111/111 107/107/107 105/105/105
f 109/109/109 111/111/111 105/105/105
f 112/112/112 108/108/108 107/107/107
f 111/111/111 112/112/112 107/107/107
f 115/115/115 114/114/114 113/113/113
f 116/116/116 115/115/115 113/113/113
f 115/115/115 117/117/117 114/114/114
f 117/117/117 118/118/118 114/114/114
f 117/117/117 119/119/119 118/118/118
f 119/119/119 120/120/120 118/118/118
f 121/121/121 115/115/115 116/116/116
f 122/122/122 121/121/121 116/116/116
f 123/123/123 117/117/117 115/115/115
f 121/121/121 123/123/123 115/115/115
f 124/124/124 119/119/119 117/117/117
f 123/123/123 124/124/124 117/117/117
f 125/125/125 121/121/121 122/122/122
f 126/126/126 125/125/125 122/122/122
f 127/127/127 123/123/123 121/121/121
f 125/125/125 127/127/127 121/121/121
f 128/128/128 124/124/124 123/123/123
f 127/127/127 128/128/128 123/123/123
f 131/131/131 130/130/130 129/129/129
f 132/132/132 131/131/131 129/129/129
f 131/131/131 133/133/133 130/130/130
f 133/133/133 134/134/134 130/130/130
f 133/133/133 135/135/135 134/134/134
f 135/135/135 136/136/136 134/134/134
f 137/137/137 131/131/131 132/132/132
f 138/138/138 137/137/137 132/132/132
f 139/139/139 133/133/133 131/131/131
f 137/137/137 139/139/139 131/131/131
f 140/140/140 135/135/135 133/133/133
f 139/139/139 140/140/140 133/133/133
f 141/141/141 137/137/137 138/138/138
f 142/142/142 141/141/141 138/138/138
f 143/143/143 139/139/139 137/137/137
f 141/141/141 143/143/143 137/137/137
f 144/144/144 140/140/140 139/139/139
f 143/143/143 144/144/144 139/139/139
